<svg version="1.2" baseProfile="tiny-ps" xmlns="http://www.w3.org/2000/svg" viewBox="0 0 837 837" width="837" height="837">
	<title>key-inactive</title>
	<defs>
		<linearGradient id="grd1" gradientUnits="userSpaceOnUse"  x1="418.065" y1="836.125" x2="418.065" y2="0">
			<stop offset="0" stop-color="#808080"  />
			<stop offset="1" stop-color="#858585"  />
		</linearGradient>
	</defs>
	<style>
		tspan { white-space:pre }
		.shp0 { fill: url(#grd1) } 
	</style>
	<g id="Layer">
		<path id="Layer" fill-rule="evenodd" class="shp0" d="M806.26 366.5C792.96 397.9 773.96 426.1 749.76 450.3C725.56 474.5 697.36 493.5 665.96 506.8C633.36 520.5 598.86 527.5 563.26 527.5C518.76 527.5 475.06 516.3 436.36 495L269.16 662.3L331.06 724.2C338.46 731.5 340.66 742.6 336.16 753.1C335.16 755.3 333.76 757.3 332.06 759L262.36 828.7C255.07 836.1 243.96 838.3 233.46 833.8C231.27 832.8 229.27 831.4 227.57 829.7L164.67 766.8L120.97 810.5C113.67 817.9 102.57 820.1 92.07 815.6C89.87 814.6 87.87 813.2 86.17 811.5L15.46 740.8C13.77 739.1 12.27 737.1 11.37 734.9C6.87 724.4 9.16 713.3 16.46 706L332.17 390.6C310.87 351.8 299.67 308.2 299.67 263.7C299.67 228.1 306.56 193.5 320.37 161C333.67 129.6 352.67 101.4 376.87 77.2C401.06 53 429.27 34 460.67 20.7C493.26 7 527.76 0 563.37 0C598.97 0 633.57 6.9 666.07 20.7C697.47 34 725.66 53 749.87 77.2C774.07 101.4 793.07 129.6 806.37 161C820.07 193.6 827.07 228.1 827.07 263.7C827.07 299.3 820.07 333.8 806.26 366.5ZM693.97 263.7C693.97 228.8 680.37 195.9 655.67 171.2C630.97 146.5 598.07 132.9 563.17 132.9C528.27 132.9 495.37 146.5 470.67 171.2C445.97 195.9 432.37 228.7 432.37 263.7C432.37 298.6 446.07 331.5 470.77 356.2C495.46 380.9 528.37 394.5 563.27 394.5C598.16 394.5 631.07 380.9 655.77 356.2C680.57 331.5 694.16 298.6 693.97 263.7Z" />
	</g>
	<g id="Layer">
	</g>
	<g id="Layer">
	</g>
	<g id="Layer">
	</g>
	<g id="Layer">
	</g>
	<g id="Layer">
	</g>
	<g id="Layer">
	</g>
	<g id="Layer">
	</g>
	<g id="Layer">
	</g>
	<g id="Layer">
	</g>
	<g id="Layer">
	</g>
	<g id="Layer">
	</g>
	<g id="Layer">
	</g>
	<g id="Layer">
	</g>
	<g id="Layer">
	</g>
	<g id="Layer">
	</g>
</svg>